<svg width="27" height="22" viewBox="0 0 27 22" fill="none" xmlns="http://www.w3.org/2000/svg">
<path d="M1.5 20.3332V18.9998C1.5 16.0543 3.88781 13.6665 6.83333 13.6665H12.1667C15.1122 13.6665 17.5 16.0543 17.5 18.9998V20.3332M17.5 9.6665C19.7091 9.6665 21.5 7.87564 21.5 5.6665C21.5 3.45736 19.7091 1.6665 17.5 1.6665M25.5 20.3332V18.9998C25.5 16.0543 23.1122 13.6665 20.1667 13.6665H19.5M13.5 5.6665C13.5 7.87564 11.7091 9.6665 9.5 9.6665C7.29086 9.6665 5.5 7.87564 5.5 5.6665C5.5 3.45736 7.29086 1.6665 9.5 1.6665C11.7091 1.6665 13.5 3.45736 13.5 5.6665Z" stroke="white" stroke-width="2" stroke-linecap="round" stroke-linejoin="round"/>
</svg>
