<svg width="20" height="28" viewBox="0 0 20 28" fill="none" xmlns="http://www.w3.org/2000/svg">
<path d="M9.75008 13.3332C8.86603 13.3332 8.01818 12.982 7.39306 12.3569C6.76794 11.7317 6.41675 10.8839 6.41675 9.99984C6.41675 9.11578 6.76794 8.26794 7.39306 7.64281C8.01818 7.01769 8.86603 6.6665 9.75008 6.6665C10.6341 6.6665 11.482 7.01769 12.1071 7.64281C12.7322 8.26794 13.0834 9.11578 13.0834 9.99984C13.0834 10.4376 12.9972 10.871 12.8297 11.2754C12.6622 11.6799 12.4166 12.0473 12.1071 12.3569C11.7976 12.6664 11.4301 12.9119 11.0257 13.0794C10.6213 13.247 10.1878 13.3332 9.75008 13.3332ZM9.75008 0.666504C7.27473 0.666504 4.90076 1.64983 3.15042 3.40017C1.40008 5.15051 0.416748 7.52448 0.416748 9.99984C0.416748 16.9998 9.75008 27.3332 9.75008 27.3332C9.75008 27.3332 19.0834 16.9998 19.0834 9.99984C19.0834 7.52448 18.1001 5.15051 16.3497 3.40017C14.5994 1.64983 12.2254 0.666504 9.75008 0.666504Z" fill="white"/>
</svg>
